<svg width="136" height="13" viewBox="0 0 136 13" fill="none" xmlns="http://www.w3.org/2000/svg">
<path d="M6.688 12.192C5.824 12.192 5.01867 12.0533 4.272 11.776C3.536 11.488 2.896 11.0827 2.352 10.56C1.808 10.0373 1.38133 9.424 1.072 8.72C0.773333 8.016 0.624 7.24267 0.624 6.4C0.624 5.55733 0.773333 4.784 1.072 4.08C1.38133 3.376 1.808 2.76267 2.352 2.24C2.90667 1.71733 3.552 1.31733 4.288 1.04C5.024 0.752 5.82933 0.608 6.704 0.608C7.67467 0.608 8.54933 0.778666 9.328 1.12C10.1173 1.45067 10.7787 1.94133 11.312 2.592L9.648 4.128C9.264 3.69067 8.83733 3.36533 8.368 3.152C7.89867 2.928 7.38667 2.816 6.832 2.816C6.30933 2.816 5.82933 2.90133 5.392 3.072C4.95467 3.24267 4.576 3.488 4.256 3.808C3.936 4.128 3.68533 4.50667 3.504 4.944C3.33333 5.38133 3.248 5.86667 3.248 6.4C3.248 6.93333 3.33333 7.41867 3.504 7.856C3.68533 8.29333 3.936 8.672 4.256 8.992C4.576 9.312 4.95467 9.55733 5.392 9.728C5.82933 9.89867 6.30933 9.984 6.832 9.984C7.38667 9.984 7.89867 9.87733 8.368 9.664C8.83733 9.44 9.264 9.104 9.648 8.656L11.312 10.192C10.7787 10.8427 10.1173 11.3387 9.328 11.68C8.54933 12.0213 7.66933 12.192 6.688 12.192ZM18.268 12.192C17.3827 12.192 16.5613 12.048 15.804 11.76C15.0573 11.472 14.4067 11.0667 13.852 10.544C13.308 10.0213 12.8813 9.408 12.572 8.704C12.2733 8 12.124 7.232 12.124 6.4C12.124 5.568 12.2733 4.8 12.572 4.096C12.8813 3.392 13.3133 2.77867 13.868 2.256C14.4227 1.73333 15.0733 1.328 15.82 1.04C16.5667 0.752 17.3773 0.608 18.252 0.608C19.1373 0.608 19.948 0.752 20.684 1.04C21.4307 1.328 22.076 1.73333 22.62 2.256C23.1747 2.77867 23.6067 3.392 23.916 4.096C24.2253 4.78933 24.38 5.55733 24.38 6.4C24.38 7.232 24.2253 8.00533 23.916 8.72C23.6067 9.424 23.1747 10.0373 22.62 10.56C22.076 11.072 21.4307 11.472 20.684 11.76C19.948 12.048 19.1427 12.192 18.268 12.192ZM18.252 9.984C18.7533 9.984 19.212 9.89867 19.628 9.728C20.0547 9.55733 20.428 9.312 20.748 8.992C21.068 8.672 21.3133 8.29333 21.484 7.856C21.6653 7.41867 21.756 6.93333 21.756 6.4C21.756 5.86667 21.6653 5.38133 21.484 4.944C21.3133 4.50667 21.068 4.128 20.748 3.808C20.4387 3.488 20.0707 3.24267 19.644 3.072C19.2173 2.90133 18.7533 2.816 18.252 2.816C17.7507 2.816 17.2867 2.90133 16.86 3.072C16.444 3.24267 16.076 3.488 15.756 3.808C15.436 4.128 15.1853 4.50667 15.004 4.944C14.8333 5.38133 14.748 5.86667 14.748 6.4C14.748 6.92267 14.8333 7.408 15.004 7.856C15.1853 8.29333 15.4307 8.672 15.74 8.992C16.06 9.312 16.4333 9.55733 16.86 9.728C17.2867 9.89867 17.7507 9.984 18.252 9.984ZM26.328 12V0.799999H28.472L35.08 8.864H34.04V0.799999H36.6V12H34.472L27.848 3.936H28.888V12H26.328ZM44.6099 12.192C43.7459 12.192 42.9405 12.0533 42.1939 11.776C41.4579 11.488 40.8179 11.0827 40.2739 10.56C39.7299 10.0373 39.3032 9.424 38.9939 8.72C38.6952 8.016 38.5459 7.24267 38.5459 6.4C38.5459 5.55733 38.6952 4.784 38.9939 4.08C39.3032 3.376 39.7299 2.76267 40.2739 2.24C40.8285 1.71733 41.4739 1.31733 42.2099 1.04C42.9459 0.752 43.7512 0.608 44.6259 0.608C45.5965 0.608 46.4712 0.778666 47.2499 1.12C48.0392 1.45067 48.7005 1.94133 49.2339 2.592L47.5699 4.128C47.1859 3.69067 46.7592 3.36533 46.2899 3.152C45.8205 2.928 45.3085 2.816 44.7539 2.816C44.2312 2.816 43.7512 2.90133 43.3139 3.072C42.8765 3.24267 42.4979 3.488 42.1779 3.808C41.8579 4.128 41.6072 4.50667 41.4259 4.944C41.2552 5.38133 41.1699 5.86667 41.1699 6.4C41.1699 6.93333 41.2552 7.41867 41.4259 7.856C41.6072 8.29333 41.8579 8.672 42.1779 8.992C42.4979 9.312 42.8765 9.55733 43.3139 9.728C43.7512 9.89867 44.2312 9.984 44.7539 9.984C45.3085 9.984 45.8205 9.87733 46.2899 9.664C46.7592 9.44 47.1859 9.104 47.5699 8.656L49.2339 10.192C48.7005 10.8427 48.0392 11.3387 47.2499 11.68C46.4712 12.0213 45.5912 12.192 44.6099 12.192ZM53.1949 12V2.912H49.6109V0.799999H59.3709V2.912H55.7869V12H53.1949ZM60.7655 12V0.799999H65.6135C66.6162 0.799999 67.4802 0.965333 68.2055 1.296C68.9308 1.616 69.4908 2.08 69.8855 2.688C70.2802 3.296 70.4775 4.02133 70.4775 4.864C70.4775 5.696 70.2802 6.416 69.8855 7.024C69.4908 7.62133 68.9308 8.08 68.2055 8.4C67.4802 8.72 66.6162 8.88 65.6135 8.88H62.2055L63.3575 7.744V12H60.7655ZM67.8855 12L65.0855 7.936H67.8535L70.6855 12H67.8855ZM63.3575 8.032L62.2055 6.816H65.4695C66.2695 6.816 66.8668 6.64533 67.2615 6.304C67.6562 5.952 67.8535 5.472 67.8535 4.864C67.8535 4.24533 67.6562 3.76533 67.2615 3.424C66.8668 3.08267 66.2695 2.912 65.4695 2.912H62.2055L63.3575 1.68V8.032ZM77.5071 12.192C75.9178 12.192 74.6751 11.7493 73.7791 10.864C72.8831 9.97867 72.4351 8.71467 72.4351 7.072V0.799999H75.0271V6.976C75.0271 8.04267 75.2458 8.81067 75.6831 9.28C76.1205 9.74933 76.7338 9.984 77.5231 9.984C78.3125 9.984 78.9258 9.74933 79.3631 9.28C79.8005 8.81067 80.0191 8.04267 80.0191 6.976V0.799999H82.5791V7.072C82.5791 8.71467 82.1311 9.97867 81.2351 10.864C80.3391 11.7493 79.0965 12.192 77.5071 12.192ZM90.5005 12.192C89.6365 12.192 88.8312 12.0533 88.0845 11.776C87.3485 11.488 86.7085 11.0827 86.1645 10.56C85.6205 10.0373 85.1938 9.424 84.8845 8.72C84.5858 8.016 84.4365 7.24267 84.4365 6.4C84.4365 5.55733 84.5858 4.784 84.8845 4.08C85.1938 3.376 85.6205 2.76267 86.1645 2.24C86.7192 1.71733 87.3645 1.31733 88.1005 1.04C88.8365 0.752 89.6418 0.608 90.5165 0.608C91.4872 0.608 92.3618 0.778666 93.1405 1.12C93.9298 1.45067 94.5912 1.94133 95.1245 2.592L93.4605 4.128C93.0765 3.69067 92.6498 3.36533 92.1805 3.152C91.7112 2.928 91.1992 2.816 90.6445 2.816C90.1218 2.816 89.6418 2.90133 89.2045 3.072C88.7672 3.24267 88.3885 3.488 88.0685 3.808C87.7485 4.128 87.4978 4.50667 87.3165 4.944C87.1458 5.38133 87.0605 5.86667 87.0605 6.4C87.0605 6.93333 87.1458 7.41867 87.3165 7.856C87.4978 8.29333 87.7485 8.672 88.0685 8.992C88.3885 9.312 88.7672 9.55733 89.2045 9.728C89.6418 9.89867 90.1218 9.984 90.6445 9.984C91.1992 9.984 91.7112 9.87733 92.1805 9.664C92.6498 9.44 93.0765 9.104 93.4605 8.656L95.1245 10.192C94.5912 10.8427 93.9298 11.3387 93.1405 11.68C92.3618 12.0213 91.4818 12.192 90.5005 12.192ZM99.0855 12V2.912H95.5015V0.799999H105.262V2.912H101.678V12H99.0855ZM106.656 12V0.799999H109.248V12H106.656ZM117.346 12.192C116.461 12.192 115.639 12.048 114.882 11.76C114.135 11.472 113.485 11.0667 112.93 10.544C112.386 10.0213 111.959 9.408 111.65 8.704C111.351 8 111.202 7.232 111.202 6.4C111.202 5.568 111.351 4.8 111.65 4.096C111.959 3.392 112.391 2.77867 112.946 2.256C113.501 1.73333 114.151 1.328 114.898 1.04C115.645 0.752 116.455 0.608 117.33 0.608C118.215 0.608 119.026 0.752 119.762 1.04C120.509 1.328 121.154 1.73333 121.698 2.256C122.253 2.77867 122.685 3.392 122.994 4.096C123.303 4.78933 123.458 5.55733 123.458 6.4C123.458 7.232 123.303 8.00533 122.994 8.72C122.685 9.424 122.253 10.0373 121.698 10.56C121.154 11.072 120.509 11.472 119.762 11.76C119.026 12.048 118.221 12.192 117.346 12.192ZM117.33 9.984C117.831 9.984 118.29 9.89867 118.706 9.728C119.133 9.55733 119.506 9.312 119.826 8.992C120.146 8.672 120.391 8.29333 120.562 7.856C120.743 7.41867 120.834 6.93333 120.834 6.4C120.834 5.86667 120.743 5.38133 120.562 4.944C120.391 4.50667 120.146 4.128 119.826 3.808C119.517 3.488 119.149 3.24267 118.722 3.072C118.295 2.90133 117.831 2.816 117.33 2.816C116.829 2.816 116.365 2.90133 115.938 3.072C115.522 3.24267 115.154 3.488 114.834 3.808C114.514 4.128 114.263 4.50667 114.082 4.944C113.911 5.38133 113.826 5.86667 113.826 6.4C113.826 6.92267 113.911 7.408 114.082 7.856C114.263 8.29333 114.509 8.672 114.818 8.992C115.138 9.312 115.511 9.55733 115.938 9.728C116.365 9.89867 116.829 9.984 117.33 9.984ZM125.406 12V0.799999H127.55L134.158 8.864H133.118V0.799999H135.678V12H133.55L126.926 3.936H127.966V12H125.406Z" fill="white"/>
</svg>
