<svg width="15" height="21" viewBox="0 0 15 21" fill="none" xmlns="http://www.w3.org/2000/svg">
<path d="M7.49969 0C3.4814 0 0.212341 3.26954 0.212341 7.28794C0.212341 11.156 6.82428 20.1931 7.10581 20.5758L7.36856 20.9334C7.38365 20.954 7.40338 20.9708 7.42617 20.9824C7.44895 20.9939 7.47414 21 7.49969 21C7.52537 21 7.55069 20.994 7.57362 20.9825C7.59654 20.9709 7.61641 20.9541 7.63162 20.9334L7.89421 20.5758C8.1759 20.1931 14.7877 11.156 14.7877 7.28794C14.7877 3.26954 11.5181 0 7.49969 0ZM7.49969 4.67741C8.93946 4.67741 10.1102 5.84822 10.1102 7.28794C10.1102 8.72691 8.93941 9.89846 7.49969 9.89846C6.06078 9.89846 4.88917 8.72691 4.88917 7.28794C4.88917 5.84822 6.06072 4.67741 7.49969 4.67741Z" fill="white"/>
</svg>
