<svg width="243" height="43" viewBox="0 0 243 43" fill="none" xmlns="http://www.w3.org/2000/svg">
<g clip-path="url(#clip0_1_856)">
<path d="M-13.0125 39.8641V3.1359C-13.0125 2.78718 -12.7123 2.47949 -12.3397 2.47949H31.5816C31.9439 2.47949 32.2441 2.78718 32.2441 3.1359V39.8641C32.2441 40.2333 31.9439 40.5308 31.5816 40.5308H-12.3397C-12.7123 40.5308 -13.0125 40.2333 -13.0125 39.8641ZM-12.3397 0.5C-13.8096 0.5 -15 1.68974 -15 3.1359V39.8641C-15 41.3205 -13.8096 42.5 -12.3397 42.5H31.5816C33.0412 42.5 34.2316 41.3205 34.2316 39.8641V3.1359C34.2316 1.68974 33.0515 0.5 31.5816 0.5H-12.3397Z" fill="#9CA09E"/>
<path d="M25.1326 25.6591L12.7419 25.6181C11.9035 25.6181 11.2203 24.9514 11.2203 24.1206C11.2203 23.7924 11.3341 23.495 11.5101 23.2488L17.8349 16.9411C18.1143 16.6027 18.4456 16.4899 18.9218 16.4899C19.3048 16.4899 19.636 16.6232 19.8948 16.8386L26.3748 23.3001C26.5404 23.5463 26.6336 23.8334 26.6336 24.1411C26.644 24.9822 25.9711 25.6591 25.1326 25.6591ZM6.55176 25.6181L-5.8493 25.6488C-6.67742 25.6488 -7.35026 24.9719 -7.35026 24.1411C-7.35026 23.8334 -7.2571 23.5463 -7.10183 23.3001L-0.611458 16.8386C-0.331967 16.6129 0.0199823 16.4899 0.371932 16.4899C0.8481 16.4899 1.17935 16.6027 1.45884 16.9411L7.78358 23.2488C7.94921 23.495 8.06307 23.7924 8.06307 24.1206C8.06307 24.9514 7.39023 25.6181 6.55176 25.6181ZM28.1139 6.16165L19.9673 14.2437V14.2642C19.7085 14.5617 19.2841 14.7258 18.9011 14.7258C18.5181 14.7258 18.1765 14.5411 17.8866 14.2129L9.61579 6.03857L1.37602 14.2232C1.08618 14.5514 0.723882 14.7258 0.340878 14.7258C-0.0421267 14.7258 -0.456186 14.5411 -0.725324 14.2437L-8.86158 6.16165L-8.92369 6.11037V37.1155H28.176V6.11037L28.1139 6.16165Z" fill="#9CA09E"/>
<path d="M59.8825 37.0745V12.6642H47.4194V6.11035H80.8028V12.6642H69.0436V37.0642H59.8825V37.0745ZM85.0366 37.0745V6.11035H115.128V12.9104H93.0279V18.7668H114.662V24.8591H93.0279V30.9616H115.128V37.0539H85.0366V37.0745ZM160.488 37.0745V6.11035H190.58V12.9104H168.48V18.7668H190.114V24.8591H168.48V30.9616H190.58V37.0539H160.488V37.0745ZM232.835 37.1257L218.26 20.7975L231.365 6.11035H220.434L212.774 14.6437L205.145 6.11035H194.214L207.267 20.7975L192.692 37.0745H203.747L212.763 26.9719L221.779 37.1257H232.835ZM120.998 6.11035V37.0745H129.217V25.3411H137.332L146.39 37.0642H156.255C156.255 37.0642 147.208 25.218 147.321 25.3411C157.424 25.5668 161.213 6.1001 144.03 6.1001L120.998 6.11035ZM129.279 12.4283H143.854C148.615 12.4283 148.74 18.7668 144.03 18.7668H129.217L129.279 12.4283ZM238.197 36.6129C236.002 36.6129 234.243 34.8283 234.243 32.6129C234.243 30.3975 236.002 28.6129 238.197 28.6129C240.381 28.6129 242.151 30.3975 242.151 32.6129C242.151 34.818 240.381 36.6129 238.197 36.6129ZM233.373 32.6129C233.373 35.2488 235.526 37.3719 238.197 37.3719C240.857 37.3719 243.01 35.2386 243.01 32.6129C243.01 29.977 240.857 27.8334 238.197 27.8334C235.526 27.8334 233.373 29.977 233.373 32.6129ZM237.12 32.3155V30.6232H238.29C238.89 30.6232 239.512 30.7052 239.512 31.4437C239.512 32.2745 238.818 32.3052 238.042 32.3052L237.12 32.3155ZM236.272 35.4334H237.12V33.095H238.052L239.605 35.4334H240.454L238.849 33.0232C239.698 32.9411 240.36 32.4693 240.36 31.4745C240.36 30.377 239.688 29.8437 238.435 29.8437H236.261L236.272 35.4334Z" fill="#9CA09E"/>
</g>
<defs>
<clipPath id="clip0_1_856">
<rect width="258" height="42" fill="white" transform="translate(-15 0.5)"/>
</clipPath>
</defs>
</svg>
