<svg width="22" height="20" viewBox="0 0 22 20" fill="none" xmlns="http://www.w3.org/2000/svg">
<path d="M0.388585 9.60745L5.45783 11.4994L7.41993 17.8096C7.54548 18.2137 8.03967 18.3631 8.36769 18.0949L11.1934 15.7914C11.4896 15.55 11.9115 15.538 12.221 15.7627L17.3175 19.4629C17.6684 19.7179 18.1655 19.5256 18.2535 19.1016L21.987 1.14295C22.0831 0.679772 21.628 0.293379 21.1869 0.463952L0.382645 8.48963C-0.130762 8.68763 -0.126288 9.41451 0.388585 9.60745ZM7.10372 10.4923L17.0109 4.39044C17.189 4.2811 17.3721 4.52185 17.2192 4.66368L9.04295 12.2639C8.75555 12.5315 8.57017 12.8895 8.51766 13.2781L8.23914 15.3421C8.20225 15.6177 7.81512 15.6451 7.73908 15.3783L6.6679 11.6145C6.54521 11.1852 6.724 10.7267 7.10372 10.4923Z" fill="#9F9F9F"/>
</svg>
