<svg width="22" height="20" viewBox="0 0 22 20" fill="none" xmlns="http://www.w3.org/2000/svg">
<path d="M0.388585 9.6073L5.45783 11.4993L7.41993 17.8094C7.54548 18.2136 8.03967 18.3629 8.36769 18.0948L11.1934 15.7912C11.4896 15.5499 11.9115 15.5378 12.221 15.7625L17.3175 19.4627C17.6684 19.7178 18.1655 19.5255 18.2535 19.1015L21.987 1.1428C22.0831 0.679627 21.628 0.293234 21.1869 0.463807L0.382645 8.48948C-0.130762 8.68748 -0.126288 9.41436 0.388585 9.6073ZM7.10372 10.4921L17.0109 4.39029C17.189 4.28095 17.3721 4.52171 17.2192 4.66353L9.04295 12.2638C8.75555 12.5313 8.57017 12.8893 8.51766 13.2779L8.23914 15.342C8.20225 15.6176 7.81512 15.6449 7.73908 15.3782L6.6679 11.6144C6.54521 11.1851 6.724 10.7265 7.10372 10.4921Z" fill="white"/>
</svg>
