<svg width="22" height="14" viewBox="0 0 22 14" fill="none" xmlns="http://www.w3.org/2000/svg">
<path d="M19.5064 5.97168C19.8192 5.56725 20.0676 5.24275 20.251 4.99792C21.572 3.2416 22.1446 2.11965 21.9691 1.6305L21.9003 1.51594C21.8545 1.44713 21.7359 1.38394 21.5452 1.32675C21.3542 1.26959 21.1099 1.26046 20.8122 1.29819L17.5134 1.32146C17.437 1.31385 17.3606 1.31563 17.2842 1.32675C17.2079 1.33836 17.1583 1.35001 17.1353 1.36113C17.1122 1.37278 17.0933 1.38212 17.0781 1.38973L17.0323 1.42411C16.9942 1.44688 16.9522 1.4871 16.9064 1.54454C16.8606 1.60194 16.8222 1.66848 16.7918 1.7451C16.4329 2.66901 16.0245 3.52821 15.5662 4.32239C15.2836 4.79588 15.0239 5.20663 14.7875 5.55361C14.5507 5.90138 14.3522 6.15711 14.1918 6.32097C14.0315 6.48513 13.8862 6.61712 13.7565 6.71606C13.6265 6.8157 13.5274 6.85744 13.4589 6.84227C13.39 6.82711 13.325 6.81194 13.2641 6.79624C13.1571 6.72772 13.0711 6.63436 13.0064 6.51575C12.9414 6.39768 12.8976 6.24865 12.8746 6.06908C12.8518 5.88977 12.8382 5.735 12.8346 5.60498C12.8306 5.47525 12.8326 5.29213 12.8404 5.05512C12.8481 4.81836 12.8518 4.6583 12.8518 4.57407C12.8518 4.2842 12.8576 3.96908 12.8691 3.62917C12.8805 3.2895 12.8901 3.02013 12.8976 2.82155C12.9052 2.62326 12.909 2.41307 12.909 2.19152C12.909 1.97046 12.8956 1.79643 12.8687 1.67026C12.8419 1.54454 12.8017 1.42238 12.7486 1.30377C12.695 1.18566 12.6168 1.09383 12.5136 1.02911C12.4105 0.9641 12.2827 0.912772 12.13 0.874296C11.725 0.782467 11.2096 0.733412 10.5836 0.725353C9.16319 0.710682 8.25065 0.802222 7.84597 1.00051C7.68562 1.08473 7.54044 1.19905 7.41071 1.34423C7.27313 1.51243 7.25416 1.60422 7.35356 1.61889C7.81183 1.6877 8.13613 1.8521 8.32706 2.11159L8.39587 2.24892C8.44922 2.34856 8.50262 2.52412 8.55622 2.77601C8.60961 3.02794 8.644 3.30665 8.65941 3.61218C8.6976 4.1696 8.6976 4.64664 8.65941 5.044C8.62123 5.44132 8.58507 5.75041 8.55068 5.97147C8.51626 6.19303 8.46468 6.37234 8.39612 6.50967C8.32731 6.6475 8.28156 6.73148 8.25854 6.76206C8.23552 6.79239 8.21655 6.81161 8.20138 6.81926C8.10199 6.85719 7.99905 6.87641 7.89209 6.87641C7.7851 6.87641 7.65533 6.82277 7.50258 6.71577C7.3498 6.60931 7.19122 6.46211 7.02732 6.27494C6.86292 6.08805 6.67802 5.82629 6.47163 5.49013C6.26549 5.15451 6.0515 4.75715 5.83019 4.29912L5.64707 3.96677C5.53252 3.75331 5.37593 3.44196 5.17739 3.03348C4.97885 2.625 4.80305 2.22995 4.65055 1.8478C4.58934 1.6877 4.49776 1.56554 4.37564 1.48131L4.31849 1.44693C4.2803 1.41655 4.21909 1.38394 4.13512 1.34977C4.05089 1.31538 3.9634 1.29059 3.87157 1.27517L0.733062 1.29794C0.412363 1.29794 0.194858 1.3708 0.0802988 1.51594L0.0345082 1.5845C0.011365 1.62294 0 1.68414 0 1.76787C0 1.8521 0.0230193 1.95504 0.0688098 2.07696C0.527087 3.1539 1.02537 4.19242 1.56357 5.19245C2.10207 6.19302 2.56973 6.99882 2.9668 7.60964C3.36387 8.22095 3.76855 8.79709 4.18107 9.33935C4.5936 9.8816 4.86649 10.2288 5.00001 10.3814C5.13354 10.5344 5.23851 10.649 5.31493 10.7251L5.60124 11.0002C5.78436 11.1834 6.05373 11.4029 6.40886 11.6589C6.76394 11.9148 7.157 12.1667 7.58875 12.4146C8.02 12.663 8.52229 12.8651 9.09488 13.0219C9.66751 13.1787 10.2249 13.2416 10.7672 13.2108H12.0844C12.3518 13.188 12.554 13.1043 12.6915 12.9589L12.7372 12.9017C12.7675 12.8562 12.7964 12.7854 12.8232 12.69C12.8497 12.5947 12.8635 12.4894 12.8635 12.3751C12.8556 12.0469 12.8807 11.7504 12.9378 11.4874C12.995 11.2238 13.0599 11.0255 13.1326 10.8915C13.2052 10.7582 13.2871 10.6454 13.3789 10.5536C13.4705 10.4618 13.5352 10.4069 13.5736 10.3877C13.6118 10.3689 13.6425 10.3555 13.6653 10.3474C13.8483 10.2864 14.0641 10.3457 14.3124 10.525C14.5606 10.7048 14.7935 10.9259 15.0113 11.1894C15.2287 11.4529 15.4903 11.7486 15.7958 12.0772C16.1011 12.4054 16.3684 12.6497 16.5976 12.8101L16.8267 12.948C16.9794 13.0392 17.1778 13.1232 17.4224 13.1999C17.6667 13.276 17.8807 13.2952 18.0638 13.257L20.9961 13.211C21.2862 13.211 21.5116 13.1635 21.672 13.0678C21.8323 12.973 21.9277 12.8673 21.9583 12.753C21.9886 12.6384 21.9907 12.5092 21.9641 12.3637C21.9373 12.2188 21.9105 12.1176 21.884 12.0605C21.8572 12.0033 21.8323 11.9552 21.8093 11.9173C21.4275 11.2301 20.6982 10.3861 19.6215 9.3858L19.5985 9.36303L19.5872 9.35142L19.5758 9.34026H19.5643C19.0754 8.87437 18.7663 8.56124 18.6365 8.40064C18.3999 8.09565 18.3462 7.78631 18.4762 7.47322C18.5673 7.23579 18.9108 6.73553 19.5064 5.97168Z" fill="white"/>
</svg>
